<svg width="267" height="51" viewBox="0 0 267 51" fill="none" xmlns="http://www.w3.org/2000/svg">
<path d="M65.9371 0.476562H77.9354V4.26764H73.8454V18.3177H70V4.26764H65.9371V0.476562Z" fill="#070707"/>
<path d="M80.4764 0.476562H84.3218V7.35214H90.6403V0.476562H94.4721V18.3177H90.6403V11.2247H84.3218V18.3177H80.4764V0.476562Z" fill="#070707"/>
<path d="M98.1953 0.476562H108.237V4.00947H102.041V7.61031H108.237V11.0889H102.041V14.7848H108.237V18.3177H98.1953V0.476562Z" fill="#070707"/>
<path d="M120.194 0.476562H124.039V7.35214H130.358V0.476562H134.19V18.3177H130.358V11.2247H124.039V18.3177H120.194V0.476562Z" fill="#265EF7"/>
<path d="M144.068 0.476562H147.044L154.327 18.3177H150.468L149.014 14.812H142.18L140.78 18.3177H136.935L144.068 0.476562ZM145.563 6.31944L143.484 11.578H147.71L145.563 6.31944Z" fill="#265EF7"/>
<path d="M157.126 0.476562H163.227C164.867 0.476562 166.19 0.956675 167.195 1.9169C168.201 2.86807 168.703 4.1227 168.703 5.6808C168.703 6.70444 168.454 7.67825 167.956 8.60224C167.467 9.51717 166.724 10.2011 165.728 10.654C164.731 11.107 163.88 11.3425 163.173 11.3606L160.945 11.415V18.3177H157.126V0.476562ZM160.89 3.68335V8.24895H162.385C163.028 8.24895 163.576 8.01795 164.029 7.55596C164.491 7.09396 164.722 6.54591 164.722 5.9118C164.722 5.1871 164.464 4.62546 163.948 4.22688C163.431 3.82829 162.698 3.629 161.746 3.629L160.89 3.68335Z" fill="#265EF7"/>
<path d="M171.91 0.476562H178.011C179.651 0.476562 180.974 0.956675 181.979 1.9169C182.985 2.86807 183.487 4.1227 183.487 5.6808C183.487 6.70444 183.238 7.67825 182.74 8.60224C182.251 9.51717 181.508 10.2011 180.512 10.654C179.515 11.107 178.664 11.3425 177.957 11.3606L175.729 11.415V18.3177H171.91V0.476562ZM175.674 3.68335V8.24895H177.169C177.812 8.24895 178.36 8.01795 178.813 7.55596C179.275 7.09396 179.506 6.54591 179.506 5.9118C179.506 5.1871 179.248 4.62546 178.731 4.22688C178.215 3.82829 177.481 3.629 176.53 3.629L175.674 3.68335Z" fill="#265EF7"/>
<path d="M185.254 0.476562H189.507L192.795 6.0205L196.138 0.476562H200.418L194.738 9.97464V18.3177H190.934V9.97464L185.254 0.476562Z" fill="#265EF7"/>
<path d="M39.6944 10.1237C39.6944 8.27463 39.6944 6.57086 39.6944 4.86709C39.6944 4.54269 39.6854 4.21699 39.7061 3.89388C39.7606 3.02837 40.3433 2.45483 41.2166 2.43666C42.1677 2.4172 43.1189 2.42109 44.07 2.43536C45.0705 2.44964 45.6739 3.06081 45.6752 4.07036C45.6816 7.48698 45.6855 10.9036 45.67 14.3189C45.6687 14.7458 45.7854 15.03 46.1306 15.2999C48.7985 17.3969 51.4171 19.5574 54.12 21.6076C55.7693 22.8585 55.7356 24.4715 54.9583 25.4836C53.8384 26.9447 51.8803 27.2315 50.4711 26.1207C46.7042 23.1492 42.9476 20.1634 39.1897 17.1815C35.4993 14.2527 31.8036 11.3292 28.1301 8.37844C27.7252 8.05274 27.5124 8.20196 27.2049 8.44851C21.4837 13.0265 15.7586 17.598 10.0336 22.1708C8.39468 23.4788 6.76098 24.7933 5.11301 26.0883C3.79594 27.1238 2.06881 27.0472 0.91523 25.9287C-0.366813 24.6869 -0.298039 23 1.0969 21.8801C3.35475 20.0661 5.62168 18.2637 7.88602 16.4561C13.6967 11.8184 19.5088 7.18074 25.3195 2.54306C26.9843 1.21431 28.4376 1.22728 30.118 2.56512C33.1272 4.96312 36.1403 7.35332 39.1533 9.74612C39.2857 9.85123 39.4297 9.93947 39.6931 10.1224L39.6944 10.1237Z" fill="#070707"/>
<path d="M11.2668 40.27C11.2668 40.27 28.061 56.4159 44.2069 40.27" stroke="#265EF7" stroke-width="5.5" stroke-miterlimit="22.93" stroke-linecap="round"/>
<path d="M65.9371 30.4649H69.7826V37.3405H76.101V30.4649H79.9329V48.3061H76.101V41.2131H69.7826V48.3061H65.9371V30.4649Z" fill="#070707"/>
<path d="M83.0445 39.3787C83.0445 36.7426 83.9142 34.5685 85.6535 32.8564C87.4018 31.1352 89.4717 30.2747 91.8632 30.2747C94.5084 30.2747 96.6961 31.1398 98.4263 32.87C100.156 34.5911 101.022 36.7698 101.022 39.4059C101.022 42.0238 100.166 44.1979 98.4534 45.9281C96.7413 47.6584 94.5854 48.5235 91.9855 48.5235C89.3857 48.5235 87.2433 47.6629 85.5583 45.9417C83.8825 44.2206 83.0445 42.0329 83.0445 39.3787ZM92.0399 33.8347C90.5452 33.8076 89.3404 34.3239 88.4254 35.3838C87.5105 36.4437 87.053 37.8115 87.053 39.4874C87.053 41.0727 87.5196 42.3862 88.4526 43.4279C89.3857 44.4697 90.5633 44.9906 91.9855 44.9906C93.4802 44.9906 94.685 44.4787 95.5999 43.4551C96.5239 42.4224 96.9859 41.0636 96.9859 39.3787C96.9859 37.7209 96.533 36.3893 95.6271 35.3838C94.7303 34.3783 93.5346 33.8619 92.0399 33.8347Z" fill="#070707"/>
<path d="M105.506 30.4649H110.071L113.414 41.1587L116.757 30.4649H121.173L123.456 48.3061H119.787L118.224 35.7507L114.297 48.3061H112.544L108.522 35.642L107.041 48.3061H103.318L105.506 30.4649Z" fill="#070707"/>
<path d="M126.295 30.4649H136.337V33.9978H130.141V37.5986H136.337V41.0772H130.141V44.7732H136.337V48.3061H126.295V30.4649Z" fill="#070707"/>
<path d="M146.841 30.4649H150.672V48.3061H146.841V30.4649Z" fill="#070707"/>
<path d="M166.054 30.4649H169.818V48.3061H166.095L157.901 36.7562V48.3061H154.07V30.4649H157.847L166.054 41.9332V30.4649Z" fill="#070707"/>
<path d="M173.229 30.4649H177.061V48.3061H173.229V30.4649Z" fill="#070707"/>
<path d="M179.425 30.4649H191.423V34.256H187.333V48.3061H183.488V34.256H179.425V30.4649Z" fill="#070707"/>
<path d="M193.801 30.4649H197.633V48.3061H193.801V30.4649Z" fill="#070707"/>
<path d="M207.403 30.4649H210.379L217.662 48.3061H213.803L212.349 44.8003H205.514L204.114 48.3061H200.269L207.403 30.4649ZM208.897 36.3078L206.818 41.5664H211.044L208.897 36.3078Z" fill="#070707"/>
<path d="M217.472 30.4649H229.47V34.256H225.38V48.3061H221.534V34.256H217.472V30.4649Z" fill="#070707"/>
<path d="M231.848 30.4649H235.68V48.3061H231.848V30.4649Z" fill="#070707"/>
<path d="M237.799 30.4649H241.686L246.197 42.3273L250.708 30.4649H254.608L247.868 48.3061H244.525L237.799 30.4649Z" fill="#070707"/>
<path d="M256.959 30.4649H267V33.9978H260.804V37.5986H267V41.0772H260.804V44.7732H267V48.3061H256.959V30.4649Z" fill="#070707"/>
</svg>
