<svg width="116" height="116" viewBox="0 0 116 116" fill="none" xmlns="http://www.w3.org/2000/svg">
<path d="M116 58C116 90.0325 90.0325 116 58 116C25.9675 116 0 90.0325 0 58C0 25.9675 25.9675 0 58 0C90.0325 0 116 25.9675 116 58ZM10.2953 58C10.2953 84.3466 31.6534 105.705 58 105.705C84.3466 105.705 105.705 84.3466 105.705 58C105.705 31.6534 84.3466 10.2953 58 10.2953C31.6534 10.2953 10.2953 31.6534 10.2953 58Z" fill="#D9D9D9"/>
<path d="M61.4256 5.25876C61.6099 2.42178 64.0652 0.247957 66.8747 0.682945C76.4561 2.16642 85.5421 6.03367 93.281 11.9647C102.386 18.9426 109.217 28.4638 112.911 39.3241C116.605 50.1845 116.995 61.8963 114.033 72.9784C111.07 84.0606 104.888 94.0155 96.2678 101.584C87.6476 109.153 76.9767 113.995 65.6044 115.499C54.2322 117.003 42.6693 115.101 32.378 110.034C22.0866 104.966 13.5292 96.9607 7.78764 87.0296C2.90754 78.5885 0.248116 69.0786 0.0165176 59.3858C-0.0513916 56.5436 2.42178 54.3901 5.25876 54.5744C8.09574 54.7587 10.2171 57.2127 10.3394 60.053C10.6692 67.7086 12.8401 75.1993 16.7006 81.8767C21.4229 90.045 28.4614 96.6295 36.926 100.798C45.3905 104.966 54.901 106.53 64.2546 105.293C73.6083 104.056 82.3851 100.073 89.4751 93.8478C96.5651 87.6226 101.65 79.4348 104.087 70.3197C106.523 61.2047 106.202 51.5718 103.164 42.6392C100.126 33.7066 94.5072 25.8755 87.0185 20.1362C80.8965 15.4443 73.7495 12.3227 66.2009 11.0054C63.4003 10.5167 61.2413 8.09574 61.4256 5.25876Z" fill="#1DCC00"/>
</svg>
