<svg width="92" height="84" viewBox="0 0 92 84" fill="none" xmlns="http://www.w3.org/2000/svg">
<g id="Group 36678">
<path id="Star 8" d="M31.3992 0L33.6856 9.29071C34.9798 14.5494 35.6269 17.1787 37.0013 19.2991C38.2166 21.1742 39.8356 22.754 41.7397 23.9232C43.8931 25.2454 46.5375 25.828 51.8262 26.9933L62.2249 29.2844L51.8262 31.5755C46.5375 32.7408 43.8931 33.3234 41.7397 34.6456C39.8356 35.8148 38.2166 37.3946 37.0013 39.2697C35.6269 41.3901 34.9798 44.0194 33.6856 49.2781L31.3992 58.5688L29.1127 49.2781C27.8186 44.0194 27.1715 41.3901 25.7971 39.2697C24.5817 37.3946 22.9628 35.8148 21.0586 34.6456C18.9052 33.3234 16.2608 32.7408 10.9721 31.5755L0.573486 29.2844L10.9721 26.9933C16.2609 25.828 18.9052 25.2454 21.0586 23.9232C22.9628 22.754 24.5817 21.1742 25.7971 19.2991C27.1715 17.1787 27.8186 14.5494 29.1127 9.2907L31.3992 0Z" fill="#D35400"/>
<path id="Star 9" d="M71.7754 46.2388L71.9771 47.0677C73.2579 52.331 73.8982 54.9626 75.2675 57.0869C76.4784 58.9655 78.0937 60.5496 79.9954 61.7237C82.146 63.0515 84.7896 63.6405 90.0767 64.8187L91.4268 65.1195L90.0767 65.4203C84.7896 66.5985 82.146 67.1875 79.9954 68.5153C78.0937 69.6894 76.4784 71.2736 75.2675 73.1521C73.8982 75.2764 73.2579 77.908 71.9771 83.1713L71.7754 84.0002L71.5737 83.1713C70.2929 77.908 69.6526 75.2764 68.2833 73.1521C67.0724 71.2736 65.4571 69.6894 63.5554 68.5153C61.4048 67.1875 58.7612 66.5985 53.4741 65.4203L52.124 65.1195L53.4741 64.8187C58.7612 63.6405 61.4048 63.0515 63.5554 61.7237C65.4571 60.5496 67.0724 58.9655 68.2833 57.0869C69.6526 54.9626 70.2929 52.331 71.5737 47.0677L71.7754 46.2388Z" fill="#D35400"/>
</g>
</svg>
