<svg width="360" height="361" viewBox="0 0 360 361" fill="none" xmlns="http://www.w3.org/2000/svg">
<path d="M258.547 133.638C258.851 134.145 259.028 134.703 258.952 135.311C258.876 135.919 258.521 136.223 257.939 136.401C257.128 136.629 256.241 136.401 255.455 136.071C254.239 135.514 253.225 134.652 252.338 133.638C252.009 133.258 251.679 132.853 251.249 132.574C250.336 132.017 249.044 132.169 248.233 131.434C247.017 130.293 247.878 128.013 248.866 126.999C248.892 127.151 248.892 127.303 248.968 127.455C249.221 127.911 249.804 127.531 250.159 127.43C250.691 127.303 251.223 127.252 251.755 127.252C252.11 127.252 252.414 127.278 252.668 127.506C252.845 127.658 252.972 127.835 253.124 128.013C253.555 128.494 254.011 128.95 254.467 129.381C255.379 130.268 256.317 131.104 257.178 132.042C257.685 132.498 258.217 133.03 258.547 133.638Z" fill="#1A1A1A"/>
<path d="M235.208 102.596C235.41 102.292 235.36 102.14 235.258 101.836C235.132 101.455 235.106 101.101 235.132 100.695C235.233 99.0227 236.196 97.3755 237.64 96.5392C238.933 95.779 240.58 95.6523 241.948 96.2351C242.48 96.4632 242.835 96.894 243.266 97.2741C243.874 97.8063 244.482 98.3131 245.091 98.8453C247.523 100.898 250.032 102.875 252.338 105.054C253.681 106.346 255.024 107.74 256.038 109.286C256.342 109.767 256.494 110.502 256.519 111.06C256.57 111.82 256.418 112.58 256.266 113.34C256.038 114.582 255.81 115.824 255.582 117.066C254.898 120.74 254.213 124.415 253.301 128.038C253.225 128.317 253.2 128.52 252.946 128.672C252.718 128.799 252.49 128.9 252.237 128.951C251.73 129.077 251.198 129.052 250.691 128.976C250.21 128.9 249.728 128.799 249.297 128.52C248.841 128.241 248.385 127.709 248.512 127.177C249.677 122.21 249.196 117.015 249.525 111.947C248.461 111.313 247.371 110.68 246.307 110.046C244.102 108.779 241.898 107.512 239.642 106.346C238.122 105.535 236.551 104.75 235.182 103.711C235.056 103.609 234.929 103.508 234.878 103.381C234.853 103.103 235.056 102.824 235.208 102.596Z" fill="#1A1A1A"/>
<path d="M176.484 215.921L34.0503 352.732H113.829L185.211 223.126L176.484 215.921Z" fill="#EBEBEF"/>
<path d="M92.033 330.544C108.853 313.724 108.853 286.452 92.033 269.632C75.2127 252.812 47.9414 252.812 31.121 269.632C14.3007 286.452 14.3007 313.724 31.121 330.544C47.9414 347.364 75.2127 347.364 92.033 330.544Z" fill="#EBEBEF"/>
<path d="M104.242 300.503C117.02 300.503 127.379 290.144 127.379 277.366C127.379 264.588 117.02 254.229 104.242 254.229C91.4637 254.229 81.105 264.588 81.105 277.366C81.105 290.144 91.4637 300.503 104.242 300.503Z" fill="#EBEBEF"/>
<path d="M120.604 353.142C126.222 353.142 130.776 348.587 130.776 342.969C130.776 337.351 126.222 332.797 120.604 332.797C114.985 332.797 110.431 337.351 110.431 342.969C110.431 348.587 114.985 353.142 120.604 353.142Z" fill="#EBEBEF"/>
<path d="M133.763 343.965C139.381 343.965 143.936 339.411 143.936 333.793C143.936 328.174 139.381 323.62 133.763 323.62C128.145 323.62 123.591 328.174 123.591 333.793C123.591 339.411 128.145 343.965 133.763 343.965Z" fill="#EBEBEF"/>
<path d="M135.755 330.395C141.373 330.395 145.927 325.841 145.927 320.223C145.927 314.605 141.373 310.05 135.755 310.05C130.137 310.05 125.583 314.605 125.583 320.223C125.583 325.841 130.137 330.395 135.755 330.395Z" fill="#EBEBEF"/>
<path d="M138.938 312.862C144.556 312.862 149.11 308.308 149.11 302.69C149.11 297.071 144.556 292.517 138.938 292.517C133.319 292.517 128.765 297.071 128.765 302.69C128.765 308.308 133.319 312.862 138.938 312.862Z" fill="#EBEBEF"/>
<path d="M37.8458 352.939C43.4638 352.939 48.0182 348.385 48.0182 342.767C48.0182 337.149 43.4638 332.594 37.8458 332.594C32.2277 332.594 27.6733 337.149 27.6733 342.767C27.6733 348.385 32.2277 352.939 37.8458 352.939Z" fill="#EBEBEF"/>
<path d="M177.968 199.638L174.369 200.068C169.403 200.677 164.993 203.566 162.459 207.874L159.722 212.486C158.455 214.64 159.266 217.402 161.496 218.517C163.422 219.48 165.779 218.872 166.995 217.098L167.629 216.033C169.098 213.525 171.937 212.182 174.8 212.612L177.968 199.638Z" fill="#BC322F"/>
<path d="M202.092 216.363L202.853 219.911C203.917 224.802 202.65 229.921 199.406 233.722L195.935 237.827C194.338 239.728 191.449 239.88 189.65 238.157C188.104 236.662 187.901 234.229 189.194 232.48L190.005 231.543C191.88 229.338 192.235 226.196 190.866 223.636L202.092 216.363Z" fill="#BC322F"/>
<path d="M223.684 184.458C223.734 184.357 223.759 184.255 223.81 184.154L223.785 184.18C223.759 184.281 223.709 184.357 223.684 184.458Z" fill="#BEC4E4"/>
<path d="M207.237 183.521C201.713 179.593 199.027 173.663 200.547 169.406C200.471 169.507 200.395 169.583 200.344 169.685C197.329 173.916 199.964 180.961 206.198 185.421C212.457 189.856 219.958 190.033 222.974 185.776C223.278 185.371 223.506 184.915 223.684 184.458C223.709 184.357 223.734 184.281 223.785 184.18C220.617 188.108 213.344 187.854 207.237 183.521Z" fill="#BC322F"/>
<path d="M223.785 184.18L223.81 184.155C223.886 183.952 223.937 183.749 223.987 183.572C223.911 183.775 223.861 183.977 223.785 184.18Z" fill="white"/>
<path d="M223.987 183.546C224.469 182.026 224.9 180.53 225.229 179.086C227.282 170.419 226.75 163.4 223.633 160.942C220.541 158.484 213.902 160.156 206.502 164.819C204.601 166.035 202.625 167.429 200.674 169.025C200.623 169.152 200.572 169.254 200.522 169.38C199.001 173.638 201.713 179.567 207.212 183.495C213.319 187.829 220.592 188.082 223.759 184.154C223.861 183.977 223.911 183.774 223.987 183.546Z" fill="#E3453C"/>
<path d="M178.475 200.524L174.876 200.955C169.909 201.563 165.5 204.452 162.966 208.76L160.229 213.372C158.962 215.526 159.773 218.289 162.003 219.404C163.929 220.367 166.286 219.758 167.502 217.984L168.135 216.92C169.605 214.411 172.443 213.068 175.307 213.499L178.475 200.524Z" fill="#E3453C"/>
<path d="M201.079 216.186L201.839 219.733C202.903 224.624 201.636 229.743 198.393 233.544L194.921 237.65C193.324 239.55 190.436 239.702 188.636 237.979C187.09 236.484 186.888 234.051 188.18 232.303L188.991 231.365C190.866 229.16 191.221 226.018 189.853 223.458L201.079 216.186Z" fill="#E3453C"/>
<path d="M187.268 226.169C187.293 226.169 187.343 226.144 187.368 226.144C187.393 226.093 187.393 226.068 187.418 226.018C187.368 226.068 187.318 226.119 187.268 226.169Z" fill="#BEC4E4"/>
<path d="M187.369 226.144C187.344 226.144 187.293 226.17 187.268 226.17C186.28 227.209 184.455 227.437 182.402 226.905C181.009 226.55 179.513 225.866 178.094 224.852C176.777 223.914 175.712 222.85 174.927 221.76C173.736 220.113 173.254 218.415 173.634 217.098C173.609 217.148 173.558 217.174 173.533 217.224C172.063 219.302 173.888 223.129 177.613 225.79C181.338 228.45 185.57 228.907 187.04 226.829C187.166 226.601 187.293 226.373 187.369 226.144Z" fill="#ABB5E6"/>
<path d="M173.913 216.414C173.786 216.616 173.685 216.844 173.609 217.072C173.71 216.946 173.812 216.844 173.913 216.743C173.938 216.667 173.938 216.54 173.913 216.414Z" fill="white"/>
<path d="M223.683 184.459C223.506 184.915 223.252 185.346 222.974 185.776C219.958 190.008 212.457 189.856 206.198 185.422C199.938 180.987 197.328 173.942 200.344 169.685C200.42 169.583 200.471 169.507 200.547 169.406C200.597 169.279 200.648 169.153 200.699 169.051C195.757 173.03 190.79 178.149 186.584 184.104C178.246 195.862 173.71 208.077 173.938 216.439C173.938 216.566 173.938 216.667 173.964 216.794C173.862 216.895 173.736 216.997 173.66 217.124C173.28 218.416 173.786 220.114 174.952 221.786C175.738 222.876 176.802 223.966 178.12 224.878C179.539 225.892 181.034 226.576 182.428 226.931C184.48 227.463 186.305 227.235 187.293 226.196C187.344 226.145 187.395 226.094 187.445 226.044C187.42 226.094 187.42 226.12 187.395 226.17C195.402 223.687 205.539 215.375 213.927 203.541C218.362 197.256 221.605 190.617 223.683 184.459Z" fill="#D8DFE9"/>
<path d="M170.796 236.078C171.075 236.281 171.43 236.205 171.658 235.951L187.623 215.83C188.408 214.842 188.206 213.397 187.167 212.663C186.128 211.928 184.683 212.232 183.999 213.321L170.619 235.267C170.441 235.52 170.517 235.875 170.796 236.078Z" fill="#E3453C"/>
<path d="M206.763 204.648C210.066 200.18 209.122 193.88 204.654 190.577C200.186 187.274 193.887 188.218 190.583 192.686C187.28 197.154 188.224 203.453 192.692 206.756C197.16 210.06 203.46 209.115 206.763 204.648Z" fill="#BC322F"/>
<path d="M198.367 209.06C203.495 208.774 207.421 204.385 207.135 199.257C206.848 194.129 202.459 190.203 197.331 190.489C192.203 190.775 188.278 195.164 188.564 200.293C188.85 205.421 193.239 209.346 198.367 209.06Z" fill="#E3453C"/>
<path d="M203.5 204.595C206.047 201.399 205.521 196.744 202.325 194.196C199.13 191.649 194.474 192.175 191.927 195.371C189.379 198.567 189.905 203.222 193.101 205.769C196.297 208.317 200.952 207.791 203.5 204.595Z" fill="#3870B2"/>
<path d="M302.596 207.975L251.508 115.86L146.976 111.628L197.557 204.529L302.596 207.975Z" fill="#EFF3F3"/>
<path d="M193.122 211.675L142.541 118.799L146.976 111.628L197.557 204.529L193.122 211.675Z" fill="#C1382A"/>
<path d="M193.097 211.65L298.136 215.096L302.571 207.924L197.531 204.478L193.097 211.65Z" fill="#D35400"/>
<path d="M198.089 203.008L254.321 112.337L318.637 92.4443L356.066 115.885L299.808 206.556L198.089 203.008Z" fill="#AAB7B7"/>
<path d="M198.089 203.008L254.321 112.337L205.944 22.7817L149.687 113.452L198.089 203.008Z" fill="#DBDBDB"/>
<path d="M320.284 93.4329L253.18 114.187L202.701 20.7291L269.804 0L320.284 93.4329Z" fill="#D35400"/>
<path d="M320.284 93.4329L359.335 117.887L308.855 24.4542L269.804 0L320.284 93.4329Z" fill="#C1382A"/>
<path d="M320.284 93.4326L359.334 117.887L354.19 119.078L319.751 97.5126L255.638 117.329L253.18 114.187L320.284 93.4326Z" fill="#DBDBDB"/>
<path d="M188.991 106.027L180.122 89.5049L178.931 89.7076L174.826 127.187L176.017 126.984L188.991 106.027Z" fill="#EFF3F3"/>
<path d="M187.825 106.255L178.931 89.7075L165.956 110.665L174.825 127.187L187.825 106.255Z" fill="#BDC3C7"/>
<path d="M168.161 110.715L178.829 93.5342L185.621 106.179L174.952 123.361L168.161 110.715Z" fill="#566472"/>
<path d="M175.054 97.2847L174.015 98.9572L182.048 113.858L183.061 112.211L175.054 97.2847Z" fill="#BDC3C7"/>
<path d="M171.329 103.316L170.29 104.963L178.297 119.889L179.336 118.217L171.329 103.316Z" fill="#BDC3C7"/>
<path d="M183.213 99.844L182.2 97.9688L170.644 116.62L171.632 118.495L183.213 99.844Z" fill="#BDC3C7"/>
<path d="M206.578 138.743L197.709 122.22L196.518 122.423L192.413 159.877L193.604 159.674L206.578 138.743Z" fill="#EFF3F3"/>
<path d="M205.387 138.945L196.518 122.423L183.543 143.355L192.412 159.877L205.387 138.945Z" fill="#BDC3C7"/>
<path d="M185.748 143.431L196.391 126.25L203.182 138.869L192.539 156.076L185.748 143.431Z" fill="#566472"/>
<path d="M192.641 130L191.602 131.648L199.609 146.574L200.648 144.926L192.641 130Z" fill="#BDC3C7"/>
<path d="M188.89 136.031L187.876 137.678L195.884 152.579L196.923 150.932L188.89 136.031Z" fill="#BDC3C7"/>
<path d="M200.8 132.56L199.786 130.685L188.206 149.336L189.219 151.211L200.8 132.56Z" fill="#BDC3C7"/>
<path d="M233.491 101.187L224.622 84.665L223.43 84.8678L219.325 122.347L220.516 122.145L233.491 101.187Z" fill="#EFF3F3"/>
<path d="M232.325 101.415L223.43 84.8672L210.456 105.824L219.325 122.347L232.325 101.415Z" fill="#BDC3C7"/>
<path d="M212.66 105.876L223.329 88.6943L230.095 101.34L219.452 118.521L212.66 105.876Z" fill="#566472"/>
<path d="M219.553 92.4448L218.514 94.1173L226.522 109.018L227.561 107.371L219.553 92.4448Z" fill="#BDC3C7"/>
<path d="M215.803 98.4761L214.789 100.123L222.797 115.049L223.836 113.377L215.803 98.4761Z" fill="#BDC3C7"/>
<path d="M227.713 95.0037L226.699 93.1284L215.118 111.78L216.132 113.655L227.713 95.0037Z" fill="#BDC3C7"/>
<path d="M215.092 71.4624L206.198 54.9399L205.032 55.1427L200.927 92.5969L202.092 92.3942L215.092 71.4624Z" fill="#EFF3F3"/>
<path d="M213.902 71.665L205.032 55.1426L192.032 76.0744L200.927 92.5968L213.902 71.665Z" fill="#BDC3C7"/>
<path d="M194.237 76.1505L204.905 58.9438L211.697 71.5891L201.028 88.7704L194.237 76.1505Z" fill="#566472"/>
<path d="M201.13 62.7197L200.116 64.3669L208.124 79.2675L209.138 77.6204L201.13 62.7197Z" fill="#BDC3C7"/>
<path d="M197.405 68.7256L196.366 70.3728L204.399 85.2987L205.413 83.6515L197.405 68.7256Z" fill="#BDC3C7"/>
<path d="M209.289 65.2537L208.276 63.3784L196.72 82.0549L197.709 83.9048L209.289 65.2537Z" fill="#BDC3C7"/>
<path d="M266.231 165.655L284.958 166.263L285.313 167.403L242.41 205.745L242.056 204.604L266.231 165.655Z" fill="#EFF3F3"/>
<path d="M266.561 166.795L285.313 167.404L256.551 213.753L237.824 213.144L266.561 166.795Z" fill="#D35400"/>
<path d="M254.371 213.651L281.943 169.203L267.6 168.747L240.028 213.195L254.371 213.651Z" fill="#C1382A"/>
<path d="M237.393 164.743L256.146 165.376L256.5 166.517L224.748 186.84L224.418 185.7L237.393 164.743Z" fill="#EFF3F3"/>
<path d="M237.748 165.908L256.501 166.516L243.501 187.448L224.748 186.84L237.748 165.908Z" fill="#BDC3C7"/>
<path d="M242.461 185.497L253.105 168.316L238.787 167.86L228.118 185.041L242.461 185.497Z" fill="#566472"/>
<path d="M251.432 173.359L250.393 175.031L233.491 174.474L234.504 172.827L251.432 173.359Z" fill="#BDC3C7"/>
<path d="M247.707 179.39L246.668 181.037L229.74 180.48L230.779 178.833L247.707 179.39Z" fill="#BDC3C7"/>
<path d="M245.528 167.201L247.631 167.252L236.075 185.928L233.947 185.852L245.528 167.201Z" fill="#BDC3C7"/>
<path d="M294.03 166.948L312.783 167.556L313.112 168.696L281.385 189.02L281.056 187.88L294.03 166.948Z" fill="#EFF3F3"/>
<path d="M294.385 168.088L313.112 168.696L300.138 189.628L281.385 189.02L294.385 168.088Z" fill="#BDC3C7"/>
<path d="M299.098 187.677L309.742 170.496L295.424 170.04L284.755 187.221L299.098 187.677Z" fill="#566472"/>
<path d="M308.069 175.538L307.03 177.211L290.128 176.653L291.142 175.006L308.069 175.538Z" fill="#BDC3C7"/>
<path d="M304.344 181.569L303.305 183.216L286.377 182.659L287.416 181.012L304.344 181.569Z" fill="#BDC3C7"/>
<path d="M302.165 169.355L304.268 169.431L292.713 188.108L290.584 188.032L302.165 169.355Z" fill="#BDC3C7"/>
<path d="M262.962 123.513L281.715 124.121L282.07 125.287L250.317 145.61L249.988 144.445L262.962 123.513Z" fill="#EFF3F3"/>
<path d="M263.317 124.678L282.07 125.286L269.095 146.218L250.317 145.61L263.317 124.678Z" fill="#BDC3C7"/>
<path d="M268.031 144.267L278.699 127.085L264.356 126.604L253.688 143.811L268.031 144.267Z" fill="#566472"/>
<path d="M277.002 132.129L275.988 133.776L259.06 133.244L260.074 131.571L277.002 132.129Z" fill="#BDC3C7"/>
<path d="M273.277 138.135L272.263 139.807L255.335 139.25L256.349 137.603L273.277 138.135Z" fill="#BDC3C7"/>
<path d="M271.097 125.945L273.226 126.021L261.645 144.672L259.516 144.596L271.097 125.945Z" fill="#BDC3C7"/>
<path d="M319.6 125.692L338.352 126.301L338.707 127.466L306.98 147.79L306.625 146.624L319.6 125.692Z" fill="#EFF3F3"/>
<path d="M319.955 126.858L338.707 127.466L325.707 148.398L306.98 147.79L319.955 126.858Z" fill="#BDC3C7"/>
<path d="M324.668 146.446L335.336 129.265L320.993 128.784L310.325 145.965L324.668 146.446Z" fill="#566472"/>
<path d="M333.639 134.308L332.625 135.955L315.697 135.398L316.711 133.75L333.639 134.308Z" fill="#BDC3C7"/>
<path d="M329.914 140.313L328.875 141.986L311.972 141.428L312.986 139.756L329.914 140.313Z" fill="#BDC3C7"/>
<path d="M327.734 128.125L329.863 128.201L318.282 146.852L316.153 146.776L327.734 128.125Z" fill="#BDC3C7"/>
<path d="M300.974 178.605L302.621 175.944L266.054 154.125L261.822 160.942L267.954 177.363L300.974 178.605Z" fill="#DBDBDB"/>
<path d="M302.621 175.944L299.073 155.367L266.054 154.125L269.601 174.703L302.621 175.944Z" fill="#D35400"/>
<path d="M145.708 74.9339C145.708 74.9339 146.013 73.3627 147.356 73.2613C147.862 73.1853 147.939 73.7175 147.939 73.7175L146.9 76.6824L145.708 74.9339Z" fill="url(#paint0_linear_125_644)"/>
<path d="M146.823 73.2356C146.874 74.5787 146.595 76.7327 146.595 76.7327L149.104 79.9004L151.714 81.1928L154.578 80.0271L154.426 75.9471L151.131 72.9569L148.597 72.2727C148.572 72.2473 147.634 72.9315 146.823 73.2356Z" fill="#DB8965"/>
<path d="M148.268 80.3064C151.182 79.8756 153.311 79.166 154.553 78.9126C155.11 79.2927 154.248 91.0257 154.299 91.7859L148.369 86.2615C148.369 86.2615 147.913 80.3064 148.268 80.3064Z" fill="white"/>
<path d="M153.97 78.2276C153.513 78.8612 154.679 81.9021 154.679 81.9021L153.133 100.68C153.235 104.811 158.1 100.224 158.278 97.639C158.151 90.3661 161.395 80.483 154.856 76.5298H153.463C153.463 76.5298 153.818 77.7715 153.97 78.2276Z" fill="black"/>
<path d="M145.632 76.5298L141.223 80.1789C141.223 80.1789 139.272 101.466 140.488 102.758C143.022 105.469 152.297 104.38 153.64 102.758C154.527 101.694 154.4 92.5961 154.122 91.7345C153.843 90.8476 149.738 80.559 149.738 80.559L145.632 76.5298Z" fill="black"/>
<path d="M152.778 77.1382C152.956 78.608 152.5 79.647 153.057 79.8498C154.045 80.2299 154.045 77.4677 154.147 76.8088L153.691 75.9219C153.691 75.9219 152.728 76.5807 152.778 77.1382Z" fill="url(#paint1_linear_125_644)"/>
<path d="M155.743 67.5087C155.743 67.5087 156.402 68.8264 156.681 70.7523C156.732 71.0311 156.276 71.5633 156.276 71.5633C156.808 72.8303 156.073 76.1754 155.465 77.7718C155.237 78.228 154.324 78.6334 153.817 78.6081C151.993 78.4814 149.408 76.5301 148.927 75.8459C148.851 75.7192 148.673 74.4775 148.673 74.4775C147.001 74.3508 146.164 72.2728 146.088 70.4736L148.521 66.4443L155.743 67.5087Z" fill="#F4AA83"/>
<path d="M147.254 71.3095C147.913 71.2335 148.344 71.791 148.623 72.3738C148.775 71.4869 149.814 71.5882 150.143 70.904C151.081 68.7754 153.767 70.1691 155.794 68.1925C157.416 66.596 150.777 61.2997 147.584 65.3036C144.365 66.3933 145.911 72.906 146.57 72.4752C146.545 72.1711 146.367 71.4108 147.254 71.3095Z" fill="#603913"/>
<path d="M147.964 65.5574C148.242 65.228 149.814 67.7114 149.814 67.7114C149.814 67.7114 147.685 65.8869 147.964 65.5574Z" fill="#3C2415"/>
<path d="M145.632 76.5301C145.632 75.9979 145.556 74.6548 146.038 74.5028C146.95 74.1987 145.252 76.7075 150.371 78.4307C151.385 78.7855 151.79 79.9512 151.79 80.4326C147.457 80.8634 145.632 77.4677 145.632 76.5301Z" fill="url(#paint2_linear_125_644)"/>
<path d="M153.159 79.1914L151.689 79.6982L151.866 80.8893L152.373 82.0803L153.514 81.8776C153.514 81.8776 153.894 81.016 153.691 80.2557C153.514 79.4955 153.564 79.1914 153.159 79.1914Z" fill="url(#paint3_linear_125_644)"/>
<path d="M152.373 82.1058L151.942 86.3124L154.071 91.406L154.73 87.25L153.514 81.903C153.514 81.903 152.829 81.827 152.373 82.1058Z" fill="url(#paint4_linear_125_644)"/>
<path d="M159.241 142.696C159.418 143.507 159.443 144.47 158.556 144.799C158.05 145.002 157.492 144.951 156.96 144.85C154.477 144.394 152.297 142.594 151.41 140.238C151.258 139.858 151.157 139.452 150.903 139.123C150.549 138.616 149.991 138.286 149.687 137.754C149.307 137.07 149.484 136.234 149.763 135.499C149.915 135.068 150.118 134.637 150.447 134.308C150.827 133.953 151.309 133.75 151.816 133.624C151.866 133.624 153.159 133.294 153.057 133.193C154.603 134.941 155.946 136.867 157.264 138.793C158.024 139.908 158.785 141.049 159.165 142.366C159.19 142.493 159.215 142.594 159.241 142.696Z" fill="#1A1A1A"/>
<path d="M139.398 102.935C139.474 101.491 139.855 100.072 140.488 98.7793C140.412 98.9313 140.767 99.7423 140.818 99.9196C140.868 100.173 140.843 100.528 140.919 100.756C141.147 101.339 142.211 101.618 142.743 101.77C144.644 102.251 146.646 102.276 148.572 101.846C149.459 101.643 150.295 101.339 151.207 101.237C151.866 101.161 152.804 101.085 153.235 100.528C153.311 100.426 153.412 100.3 153.539 100.274C153.691 100.274 153.792 100.401 153.868 100.528C154.4 101.465 154.552 102.58 154.476 103.645C154.4 104.81 154.071 106.154 153.463 107.193C153.311 107.471 153.184 107.801 152.956 108.029C152.956 108.029 152.981 108.054 152.981 108.079C153.007 108.206 153.336 108.46 153.437 108.561C153.64 108.789 153.868 108.992 154.071 109.22C154.603 109.752 155.11 110.284 155.642 110.816C156.453 111.653 157.416 112.514 158.05 113.503C159.139 115.175 159.038 117 158.658 118.875C157.492 124.323 156.352 129.797 155.186 135.245C155.034 136.005 153.919 136.234 153.235 136.234C152.576 136.234 151.917 136.005 151.309 135.727C150.979 135.549 150.65 135.347 150.371 135.093C149.991 134.713 150.118 134.206 150.118 133.699C150.143 133.066 150.168 132.458 150.194 131.824C150.244 130.582 150.32 129.341 150.422 128.099C150.599 125.616 150.853 123.132 151.182 120.649C151.233 120.167 151.309 119.711 151.359 119.23C151.435 118.748 151.512 118.241 151.613 117.76C151.74 117.152 151.435 116.543 150.903 116.265C148.876 115.175 146.747 114.237 144.821 112.97C143.2 111.881 141.603 110.588 140.665 108.865C139.753 107.066 139.272 104.988 139.398 102.935Z" fill="#404040"/>
<path d="M163.599 96.5247C163.777 96.3726 163.979 96.2713 164.207 96.2206C164.461 96.1699 164.689 96.2206 164.942 96.2966C165.474 96.4487 165.981 96.6767 166.437 96.9808C166.817 97.2342 167.198 97.4623 167.578 97.7157C167.704 97.7918 167.831 97.8931 167.958 97.9945C168.085 98.0958 168.186 98.2226 168.287 98.3746C168.819 99.0335 169.25 99.743 169.554 100.529C169.63 100.731 169.706 100.909 169.732 101.137C169.757 101.39 169.732 101.669 169.529 101.821C169.453 101.872 169.352 101.922 169.276 101.973C169.073 102.15 169.047 102.505 168.794 102.607C168.693 102.657 168.541 102.632 168.465 102.708C168.439 102.733 168.414 102.784 168.389 102.835C168.287 102.987 168.034 102.961 167.907 102.835C167.755 102.733 167.679 102.556 167.578 102.404C167.451 102.226 167.274 102.074 167.122 101.922C166.513 101.263 166.159 100.402 165.753 99.591C165.677 99.4389 165.601 99.2869 165.5 99.1602C165.474 99.1348 165.474 99.1095 165.424 99.1095C165.398 99.1095 165.373 99.1095 165.348 99.1348C165.145 99.2362 164.942 99.3376 164.739 99.4136C164.689 99.4389 164.663 99.4643 164.638 99.4896C164.613 99.5403 164.613 99.591 164.638 99.6163C164.714 100.225 164.841 100.807 165.018 101.39C165.069 101.568 165.12 101.72 165.094 101.897C165.069 102.074 164.917 102.226 164.739 102.201C164.663 102.201 164.587 102.15 164.537 102.1C164.207 101.846 163.929 101.517 163.726 101.137C163.599 100.883 163.523 100.63 163.422 100.377C163.295 100.047 163.118 99.7177 162.991 99.3629C162.915 99.1095 162.864 98.8307 162.814 98.5773C162.763 98.3239 162.738 98.1465 162.763 97.8931C162.839 97.4116 163.042 96.9555 163.396 96.6261C163.498 96.6007 163.548 96.5754 163.599 96.5247Z" fill="#F4AA83"/>
<path d="M139.322 82.8914C139.703 82.1058 140.539 81.2695 141.502 81.2695C142.389 81.2695 143.326 82.3339 143.782 82.9674C144.137 83.4235 144.416 83.9557 144.619 84.4879C145.202 85.907 145.43 87.4274 145.759 88.9226C146.088 90.443 146.545 91.9128 146.874 93.4333C147.026 94.1682 147.178 94.8778 147.28 95.6126C148.547 95.79 157.137 98.1974 157.543 98.3748C157.897 98.5269 158.252 98.6789 158.632 98.7803C158.886 98.8563 159.266 98.831 159.494 99.0337C160.001 99.4899 159.443 100.402 159.165 100.808C158.936 101.162 158.683 101.517 158.455 101.897C158.328 102.075 158.202 102.277 158.024 102.379C157.543 102.683 156.909 102.404 156.352 102.303C155.794 102.201 155.211 102.328 154.654 102.353C153.412 102.429 152.196 102.075 150.979 101.796C149.611 101.466 148.217 101.238 146.823 101.061C145.987 100.96 145.126 100.884 144.34 100.605C143.63 100.377 142.87 99.946 142.465 99.2871C141.983 98.4762 141.628 97.4879 141.375 96.5756C141.122 95.562 140.64 94.5737 140.311 93.5854C139.626 91.5074 139.145 89.3534 138.892 87.1487C138.74 85.7549 138.689 84.2091 139.322 82.8914Z" fill="#404040"/>
<path d="M161.395 99.7687C161.749 99.8447 162.13 99.9207 162.459 100.073C162.788 100.225 163.092 100.453 163.422 100.605C163.802 100.782 164.208 100.909 164.562 101.137C164.841 101.34 165.069 101.593 165.297 101.872C165.525 102.151 165.753 102.429 166.007 102.708C166.083 102.784 166.159 102.911 166.108 103.012C166.083 103.063 166.032 103.088 165.981 103.114C165.753 103.19 165.475 103.114 165.272 102.987C165.069 102.86 164.892 102.658 164.714 102.506C164.41 102.252 164.055 102.075 163.675 101.999C164.081 102.734 164.486 103.494 164.689 104.33C164.74 104.507 164.765 104.71 164.74 104.888C164.714 105.065 164.588 105.242 164.41 105.293C164.208 105.369 164.005 105.268 163.853 105.116C163.726 104.964 163.65 104.761 163.574 104.558C163.422 104.102 163.245 103.646 162.966 103.266C162.687 102.886 162.231 102.582 161.749 102.582C162.282 103.519 162.712 104.482 163.042 105.496C163.092 105.673 163.169 105.851 163.143 106.028C163.143 106.205 163.042 106.408 162.864 106.484C162.586 106.611 162.282 106.332 162.104 106.079C161.42 105.116 161.116 103.925 160.381 103.012C160.305 103.164 160.356 103.367 160.406 103.545C160.66 104.305 160.938 105.04 161.268 105.775C161.319 105.876 161.42 106.079 161.344 106.18C161.268 106.281 161.065 106.307 160.964 106.281C160.837 106.231 160.71 106.129 160.634 106.028C160.254 105.597 159.976 105.09 159.747 104.558C159.621 104.254 159.494 103.925 159.291 103.646C158.861 103.038 158.227 102.506 157.644 102.049C157.593 102.024 157.568 101.973 157.543 101.948C157.517 101.923 157.517 101.872 157.517 101.847C157.441 101.112 157.441 100.123 158.05 99.6166C158.556 99.1858 159.342 99.3125 159.9 99.4899C160.432 99.5153 160.913 99.642 161.395 99.7687Z" fill="#F4AA83"/>
<defs>
<linearGradient id="paint0_linear_125_644" x1="147.335" y1="73.9202" x2="146.486" y2="75.3886" gradientUnits="userSpaceOnUse">
<stop stop-color="#CCCDCE"/>
<stop offset="1" stop-color="white"/>
</linearGradient>
<linearGradient id="paint1_linear_125_644" x1="154.14" y1="77.9045" x2="152.783" y2="77.9045" gradientUnits="userSpaceOnUse">
<stop stop-color="#CCCDCE"/>
<stop offset="1" stop-color="white"/>
</linearGradient>
<linearGradient id="paint2_linear_125_644" x1="151.78" y1="77.4861" x2="145.619" y2="77.4861" gradientUnits="userSpaceOnUse">
<stop stop-color="#CCCDCE"/>
<stop offset="1" stop-color="white"/>
</linearGradient>
<linearGradient id="paint3_linear_125_644" x1="151.693" y1="80.6524" x2="153.751" y2="80.6524" gradientUnits="userSpaceOnUse">
<stop stop-color="#EC4769"/>
<stop offset="1" stop-color="#CC2C52"/>
</linearGradient>
<linearGradient id="paint4_linear_125_644" x1="151.953" y1="86.64" x2="154.736" y2="86.64" gradientUnits="userSpaceOnUse">
<stop stop-color="#EC4769"/>
<stop offset="1" stop-color="#CC2C52"/>
</linearGradient>
</defs>
</svg>
