<svg width="74" height="65" viewBox="0 0 74 65" fill="none" xmlns="http://www.w3.org/2000/svg">
<g id="Group 39241">
<path id="Vector" d="M52.9501 11.457C52.9501 8.98487 52.9501 6.70706 52.9501 4.42925C52.9501 3.99555 52.938 3.56011 52.9657 3.12814C53.0384 1.97102 53.8156 1.20423 54.9805 1.17995C56.2493 1.15393 57.518 1.15913 58.7868 1.17821C60.1214 1.1973 60.9263 2.01439 60.928 3.36408C60.9367 7.93184 60.9418 12.4996 60.9211 17.0656C60.9193 17.6364 61.0751 18.0163 61.5356 18.3771C65.0944 21.1806 68.5874 24.0691 72.193 26.8101C74.393 28.4824 74.348 30.6388 73.3112 31.992C71.8174 33.9454 69.2054 34.3288 67.3256 32.8438C62.3006 28.871 57.2896 24.8792 52.2767 20.8926C47.3539 16.9772 42.4242 13.0686 37.5239 9.12366C36.9839 8.68822 36.7 8.88772 36.2898 9.21734C28.658 15.3378 21.0211 21.4495 13.3842 27.563C11.198 29.3117 9.01876 31.069 6.82046 32.8004C5.06356 34.1848 2.75967 34.0824 1.22086 32.587C-0.489307 30.9268 -0.397567 28.6715 1.4632 27.1744C4.47504 24.7491 7.49899 22.3395 10.5195 19.9229C18.2706 13.7226 26.0235 7.52242 33.7747 1.3222C35.9955 -0.454246 37.9342 -0.436898 40.1757 1.35169C44.1898 4.55763 48.209 7.75315 52.2283 10.9521C52.4048 11.0927 52.597 11.2106 52.9484 11.4552L52.9501 11.457Z" fill="white"/>
<path id="Vector_2" d="M14.6987 51.4219C14.6987 51.4219 37.1806 72.9735 58.7946 51.4219" stroke="#FFA033" stroke-width="8" stroke-miterlimit="22.93" stroke-linecap="round"/>
</g>
</svg>
