<svg xmlns="http://www.w3.org/2000/svg" width="18" height="18" viewBox="0 0 18 18" fill="none">
    <g clip-path="url(#clip0_1774_18297)">
        <path d="M17.3574 4.57872e-08C17.2576 -3.7621e-05 17.1591 0.0231651 17.0698 0.0678003L12.1983 2.5042L6.68972 0.0555963C6.68072 0.0517543 6.67044 0.0510763 6.66079 0.0472343C6.63601 0.0379682 6.61066 0.0302465 6.58493 0.0241068C6.55936 0.0172138 6.53337 0.0118274 6.50715 0.00802308C6.45495 0.00372906 6.40248 0.00372906 6.35031 0.00802308C6.32409 0.0118274 6.2981 0.0172138 6.27252 0.0241068C6.2468 0.0302465 6.22145 0.0379682 6.19666 0.0472343C6.18702 0.0510763 6.17674 0.0517166 6.16774 0.0555963L0.382111 2.627C0.149857 2.73013 0.000206481 2.96043 0.000244148 3.21453V17.3572C0.000357148 17.5747 0.110382 17.7774 0.292727 17.8959C0.47511 18.0146 0.705141 18.033 0.90406 17.9447L6.42869 15.4891L11.9533 17.9447C11.963 17.9486 11.9732 17.9447 11.9829 17.9505C12.1385 18.0202 12.3172 18.0162 12.4695 17.9396C12.4798 17.9351 12.4914 17.9396 12.5016 17.9325L17.6444 15.3611C17.8623 15.2522 18 15.0294 17.9999 14.7858V0.643161C18.0001 0.288114 17.7124 0.000150713 17.3574 4.57872e-08ZM5.78587 14.3679L1.28593 16.3678V3.6324L5.78587 1.63248V14.3679ZM11.5715 16.3678L7.07155 14.3679V1.63248L11.5715 3.63236V16.3678ZM16.7143 14.3885L12.8572 16.317V3.6118L16.7143 1.68326V14.3885Z" fill="#7E808A"/>
    </g>
    <defs>
        <clipPath id="clip0_1774_18297">
            <rect width="18" height="18" fill="white"/>
        </clipPath>
    </defs>
</svg>