<svg width="207" height="181" viewBox="0 0 207 181" fill="none" xmlns="http://www.w3.org/2000/svg">
<g id="Enable Push Notifications">
<path id="Fill 1" fill-rule="evenodd" clip-rule="evenodd" d="M131.46 122.186L130.86 124.555L71.6428 109.564L72.2419 107.195C76.98 108.394 80.6552 103.831 81.2497 101.486L84.6667 87.984C87.3729 78.1582 96.3204 71.3592 106.513 71.3842C107.386 68.1251 110.737 66.1917 113.995 67.0654C117.254 67.939 119.188 71.2888 118.314 74.5479C127.253 79.5371 131.834 89.8212 129.564 99.8027L126.255 112.878C125.552 115.649 129.091 121.586 131.46 122.186Z" fill="#CBD8FD"/>
<path id="Fill 3" fill-rule="evenodd" clip-rule="evenodd" d="M90.6082 116.887C91.1768 122.933 96.5382 127.373 102.584 126.806C105.877 126.497 108.856 124.721 110.695 121.971L90.6082 116.887Z" fill="#FFDA3E"/>
<path id="Stroke 5" fill-rule="evenodd" clip-rule="evenodd" d="M186.779 99.243C186.779 144.075 150.434 180.42 105.602 180.42C60.7702 180.42 24.4265 144.075 24.4265 99.243C24.4265 54.4109 60.7702 18.0664 105.602 18.0664C150.434 18.0664 186.779 54.4109 186.779 99.243Z" stroke="#D3D4DB" stroke-dasharray="5.02 5.02"/>
<path id="Stroke 7" fill-rule="evenodd" clip-rule="evenodd" d="M165.885 99.2431C165.885 132.536 138.895 159.525 105.602 159.525C72.309 159.525 45.321 132.536 45.321 99.2431C45.321 65.9505 72.309 38.9609 105.602 38.9609C138.895 38.9609 165.885 65.9505 165.885 99.2431Z" stroke="#D3D4DB" stroke-dasharray="5.05 5.05"/>
<path id="Fill 13" fill-rule="evenodd" clip-rule="evenodd" d="M90.6128 116.898C91.1814 122.944 96.5429 127.385 102.589 126.817C105.881 126.508 108.861 124.733 110.7 121.983L90.6128 116.898Z" fill="#A2BAFC"/>
<path id="Fill 15" fill-rule="evenodd" clip-rule="evenodd" d="M138.358 80.5716C139.737 82.2305 140.773 84.1843 141.477 86.2553C142.194 88.3272 142.544 90.5281 142.58 92.7305C142.58 93.8325 142.501 94.933 142.359 96.0241C142.171 97.1096 141.954 98.1874 141.613 99.2315C140.954 101.321 139.958 103.302 138.6 104.988C138.541 105.061 138.436 105.072 138.364 105.014C138.307 104.968 138.289 104.893 138.31 104.827C139.018 102.814 139.603 100.829 139.997 98.8155C140.069 98.3071 140.17 97.8065 140.254 97.3036C140.312 96.796 140.389 96.2923 140.432 95.7855C140.465 95.2779 140.531 94.7734 140.552 94.2658C140.56 93.7575 140.584 93.2499 140.582 92.7423C140.593 90.7095 140.367 88.6799 139.972 86.6652C139.566 84.6488 138.955 82.663 138.221 80.6506C138.206 80.6092 138.228 80.563 138.269 80.5482C138.302 80.5357 138.337 80.5466 138.358 80.5716Z" fill="#DDDDE3"/>
<path id="Fill 17" fill-rule="evenodd" clip-rule="evenodd" d="M146.124 81.2776C147.456 82.8113 148.458 84.6305 149.157 86.5616C149.857 88.495 150.261 90.5489 150.333 92.6152C150.411 94.6808 150.159 96.7574 149.607 98.7354C149.056 100.713 148.196 102.602 146.984 104.231C146.976 104.241 146.961 104.243 146.952 104.236C146.944 104.23 146.941 104.22 146.943 104.211C147.445 102.251 147.866 100.344 148.121 98.4272C148.376 96.511 148.46 94.5956 148.389 92.6872C148.311 90.7796 148.08 88.8783 147.674 86.991C147.27 85.1014 146.698 83.2368 146.046 81.3229C146.038 81.2987 146.051 81.2729 146.075 81.2643C146.093 81.258 146.113 81.2635 146.124 81.2776Z" fill="#DDDDE3"/>
<path id="Fill 19" fill-rule="evenodd" clip-rule="evenodd" d="M75.1391 91.0654C74.7167 88.9623 74.712 86.7653 75.0468 84.6176C75.3706 82.4644 76.0667 80.3652 77.0334 78.4044C78.0236 76.4553 79.289 74.6416 80.8173 73.0898C82.3346 71.5326 84.0944 70.2132 86.0356 69.2919C86.0708 69.2754 86.1115 69.2903 86.1279 69.3247C86.1412 69.3529 86.1342 69.3857 86.1115 69.406C84.5324 70.8397 83.0784 72.3343 81.7934 73.9525C80.5178 75.5739 79.3891 77.2969 78.4772 79.131C77.5402 80.9533 76.8253 82.8844 76.2818 84.8765C75.7468 86.8732 75.4167 88.9341 75.2063 91.0623C75.204 91.0803 75.1876 91.0943 75.1688 91.0928C75.1539 91.0912 75.1422 91.0795 75.1391 91.0654Z" fill="#DDDDE3"/>
<path id="Fill 21" fill-rule="evenodd" clip-rule="evenodd" d="M68.5092 86.9084C68.1096 84.9335 68.1025 82.8758 68.3927 80.861C68.6922 78.8463 69.2906 76.8667 70.1736 75.0233C71.0472 73.1767 72.175 71.449 73.532 69.9355C74.8828 68.4198 76.4439 67.0949 78.1833 66.0938C76.763 67.5078 75.4584 68.9829 74.3204 70.5691C73.1863 72.1568 72.2001 73.8313 71.4007 75.5926C70.6092 77.3563 69.9741 79.1881 69.5213 81.0785C69.0559 82.9681 68.7767 84.907 68.5757 86.9053C68.5734 86.9233 68.5577 86.9366 68.5382 86.935C68.5241 86.9334 68.5116 86.9225 68.5092 86.9084Z" fill="#DDDDE3"/>
<path id="Fill 23" fill-rule="evenodd" clip-rule="evenodd" d="M131.464 122.2C131.464 122.2 127.962 120.839 126.121 118.897C123.557 116.193 123.726 113.243 125.459 107.549C127.498 100.769 127.443 93.6268 126.657 90.3528C123.922 78.9447 118.318 74.5625 118.318 74.5625C127.257 79.5517 131.839 89.8358 129.568 99.8173L126.259 112.893C125.679 114.825 129.096 121.6 131.464 122.2L130.864 124.569L131.464 122.2Z" fill="#A2BAFC"/>
<path id="Stroke 25" d="M9.09089 110.171L7.58374 110.125" stroke="#D2D8DF" stroke-linecap="round"/>
<path id="Stroke 27" d="M8.00961 107.312L6.92871 108.322" stroke="#D2D8DF" stroke-linecap="round"/>
<path id="Stroke 29" d="M5.19236 106.008L5.16968 107.481" stroke="#D2D8DF" stroke-linecap="round"/>
<path id="Stroke 31" d="M2.28882 107.02L3.33843 108.094" stroke="#D2D8DF" stroke-linecap="round"/>
<path id="Stroke 33" d="M1 109.754L2.50637 109.8" stroke="#D2D8DF" stroke-linecap="round"/>
<path id="Stroke 35" d="M2.08081 112.611L3.16249 111.602" stroke="#D2D8DF" stroke-linecap="round"/>
<path id="Stroke 37" d="M4.89844 113.919L4.92112 112.445" stroke="#D2D8DF" stroke-linecap="round"/>
<path id="Stroke 39" d="M7.80181 112.907L6.7522 111.832" stroke="#D2D8DF" stroke-linecap="round"/>
<path id="Stroke 41" d="M205.641 89.1641L204.978 89.8813" stroke="#D2D8DF" stroke-linecap="round"/>
<path id="Stroke 43" d="M202.531 89.7852L203.03 90.2458" stroke="#D2D8DF" stroke-linecap="round"/>
<path id="Stroke 45" d="M202.026 92.9672L202.689 92.25" stroke="#D2D8DF" stroke-linecap="round"/>
<path id="Stroke 47" d="M205.136 92.3435L204.637 91.8828" stroke="#D2D8DF" stroke-linecap="round"/>
<path id="Stroke 49" d="M144.966 4.86724L143.363 4.82422" stroke="#D2D8DF" stroke-linecap="round"/>
<path id="Stroke 51" d="M140.819 1L140.795 2.3695" stroke="#D2D8DF" stroke-linecap="round"/>
<path id="Stroke 53" d="M136.359 4.48438L137.962 4.52661" stroke="#D2D8DF" stroke-linecap="round"/>
<path id="Stroke 55" d="M140.506 8.34997L140.53 6.98047" stroke="#D2D8DF" stroke-linecap="round"/>
<path id="Fill 57" fill-rule="evenodd" clip-rule="evenodd" d="M26.2916 152.737C25.1387 153.082 23.2186 154.776 22.5616 156.784C22.4514 154.918 21.2664 152.572 19.9626 152.235C21.5535 151.672 23.2765 149.605 23.7348 147.863C23.6519 149.689 25.3092 152.339 26.2916 152.737Z" fill="#EBECEF"/>
<path id="Fill 59" fill-rule="evenodd" clip-rule="evenodd" d="M53.2924 12.2074C52.4032 12.3646 50.8272 13.4596 50.1639 14.8987C50.2429 13.4995 49.5633 11.6498 48.6216 11.2853C49.855 11.0037 51.3176 9.61312 51.8095 8.35547C51.5897 9.70854 52.5948 11.8265 53.2924 12.2074Z" fill="#EBECEF"/>
<path id="Fill 61" fill-rule="evenodd" clip-rule="evenodd" d="M171.159 22.3663C169.971 22.3404 169.029 21.3573 169.055 20.1701C169.081 18.9828 170.064 18.0411 171.251 18.0669C172.439 18.0927 173.381 19.0759 173.355 20.2631C173.328 21.4504 172.346 22.3921 171.159 22.3663Z" fill="#D1D9E0"/>
<path id="Fill 63" fill-rule="evenodd" clip-rule="evenodd" d="M171.164 163.267C170.131 163.245 169.311 162.389 169.333 161.356C169.355 160.322 170.211 159.502 171.245 159.524C172.279 159.547 173.099 160.402 173.076 161.436C173.054 162.469 172.198 163.29 171.164 163.267Z" fill="#EBECEF"/>
<path id="Stroke 65" fill-rule="evenodd" clip-rule="evenodd" d="M15.7215 50.9036C15.0817 50.8895 14.5741 50.3601 14.5882 49.7195C14.6015 49.0797 15.1318 48.5729 15.7715 48.5862C16.4113 48.6003 16.9189 49.1298 16.9056 49.7695C16.8915 50.4101 16.3613 50.9177 15.7215 50.9036Z" stroke="#D2D8DF" stroke-linecap="round"/>
</g>
</svg>
