<svg width="18" height="21" viewBox="0 0 18 21" fill="none" xmlns="http://www.w3.org/2000/svg">
<path id="Vector" d="M9.21334 0.34668C11.4298 0.34668 13.5555 1.22716 15.1227 2.79443C16.69 4.3617 17.5705 6.48737 17.5705 8.70382C17.5705 12.2353 15.0891 16.0838 10.1905 20.2907C9.91811 20.5247 9.57082 20.6532 9.21174 20.6529C8.85266 20.6525 8.5056 20.5234 8.23363 20.289L7.90963 20.0078C3.22792 15.9107 0.856201 12.1564 0.856201 8.70382C0.856201 6.48737 1.73668 4.3617 3.30395 2.79443C4.87122 1.22716 6.99689 0.34668 9.21334 0.34668ZM9.21334 5.48954C8.36086 5.48954 7.5433 5.82818 6.9405 6.43098C6.33771 7.03377 5.99906 7.85134 5.99906 8.70382C5.99906 9.5563 6.33771 10.3739 6.9405 10.9767C7.5433 11.5795 8.36086 11.9181 9.21334 11.9181C10.0658 11.9181 10.8834 11.5795 11.4862 10.9767C12.089 10.3739 12.4276 9.5563 12.4276 8.70382C12.4276 7.85134 12.089 7.03377 11.4862 6.43098C10.8834 5.82818 10.0658 5.48954 9.21334 5.48954Z"/>
</svg>
