<svg width="20" height="20" viewBox="0 0 20 20" fill="none" xmlns="http://www.w3.org/2000/svg">
<g id="Trash">
<path id="Vector 8" d="M8.33301 12.5L8.33301 10" stroke="#D93D42" stroke-width="2" stroke-linecap="round"/>
<path id="Vector 9" d="M11.667 12.5L11.667 10" stroke="#D93D42" stroke-width="2" stroke-linecap="round"/>
<path id="Rectangle 41" d="M2.5 5.83398H17.5V5.83398C17.0353 5.83398 16.803 5.83398 16.6098 5.87241C15.8164 6.03023 15.1962 6.65042 15.0384 7.4438C15 7.637 15 7.86933 15 8.33398V12.6673C15 14.5529 15 15.4957 14.4142 16.0815C13.8284 16.6673 12.8856 16.6673 11 16.6673H9C7.11438 16.6673 6.17157 16.6673 5.58579 16.0815C5 15.4957 5 14.5529 5 12.6673V8.33398C5 7.86933 5 7.637 4.96157 7.4438C4.80376 6.65042 4.18356 6.03023 3.39018 5.87241C3.19698 5.83398 2.96466 5.83398 2.5 5.83398V5.83398Z" stroke="#D93D42" stroke-width="2" stroke-linecap="round"/>
<path id="Ellipse 45" d="M8.39045 2.80883C8.48541 2.72023 8.69465 2.64194 8.98572 2.5861C9.2768 2.53027 9.63343 2.5 10.0003 2.5C10.3672 2.5 10.7239 2.53027 11.0149 2.5861C11.306 2.64194 11.5152 2.72023 11.6102 2.80883" stroke="#D93D42" stroke-width="2" stroke-linecap="round"/>
</g>
</svg>
